#!OML:ASF X:\für Bonn\!DataBase\2005_08_11_Bastian_Final\c3d\Bastian.ASF
:FULLY-SPECIFIED
:DEGREES
136
root -1.50983 17.2988 2.00696 176.339 -3.28932 -175.188
lowerback 17.9678 -0.614911 1.22298
upperback 5.3558 -1.37425 1.21061
thorax -4.3059 -1.04041 0.90685
lowerneck -8.77519 -6.73809 -3.39717
upperneck -7.46596 -7.55691 11.604
head -0.225106 -3.31561 4.17759
rclavicle 2.78299e-015 7.95139e-016
rhumerus 78.5609 27.5894 11.6356
rradius 39.4057
rwrist -62.9524
rhand -51.6503 -5.59351
rfingers 7.12502
rthumb -24.1722 -34.0904
lclavicle 2.78299e-015 7.95139e-016
lhumerus 76.2095 -28.3315 -23.1461
lradius 31.7114
lwrist 25.9104
lhand -48.0127 21.9905
lfingers 7.12502
lthumb -20.6806 50.9087
rfemur -13.4907 0.401139 26.7381
rtibia 43.149
rfoot -20.1067 -10.5622
rtoes 0.844824
lfemur -11.6633 -2.04224 -15.628
ltibia 38.7841
lfoot -16.0451 -1.59202
ltoes -8.22347
137
root -1.51287 17.3351 1.9784 176.434 -3.31052 -175.192
lowerback 17.3808 -0.654117 1.18402
upperback 5.20613 -1.39263 1.21873
thorax -4.15437 -1.02909 0.927087
lowerneck -8.47552 -6.68616 -3.42145
upperneck -7.01395 -7.59259 11.4725
head -0.131976 -3.35968 4.13406
rclavicle 4.67144e-015 -1.19271e-014
rhumerus 78.5809 28.2369 11.7363
rradius 39.5081
rwrist -62.8988
rhand -51.4235 -5.79871
rfingers 7.12502
rthumb -23.9547 -34.3243
lclavicle 4.67144e-015 -1.19271e-014
lhumerus 75.864 -28.9941 -21.8301
lradius 31.4462
lwrist 24.3355
lhand -47.4643 21.2058
lfingers 7.12502
lthumb -20.1536 50.1805
rfemur -12.9791 0.758661 26.7606
rtibia 42.2775
rfoot -19.881 -10.8286
rtoes 0.886651
lfemur -11.0559 -2.15003 -15.6494
ltibia 37.7174
lfoot -15.8402 -1.45927
ltoes -8.34948
138
root -1.51632 17.3628 1.95117 176.502 -3.34968 -175.17
lowerback 16.838 -0.697556 1.18422
upperback 5.06058 -1.41294 1.22633
thorax -4.02107 -1.02041 0.926062
lowerneck -8.2082 -6.66578 -3.45538
upperneck -6.52646 -7.66945 11.3667
head -0.0171752 -3.42104 4.09823
rclavicle 1.83876e-014 -2.5842e-014
rhumerus 78.4604 28.8929 11.5338
rradius 39.5302
rwrist -62.4696
rhand -51.0634 -6.11027
rfingers 7.12502
rthumb -23.6094 -34.6808
lclavicle 1.83876e-014 -2.5842e-014
lhumerus 75.5031 -29.6212 -20.6194
lradius 31.2173
lwrist 22.7367
lhand -46.8933 20.4963
lfingers 7.12502
lthumb -19.6047 49.5278
rfemur -12.504 1.14627 26.8186
rtibia 41.5281
rfoot -19.705 -11.15
rtoes 0.990776
lfemur -10.5161 -2.28656 -15.6415
ltibia 36.8352
lfoot -15.7086 -1.38006
ltoes -8.01799
139
root -1.5202 17.3833 1.92531 176.562 -3.38643 -175.144
lowerback 16.2916 -0.747078 1.18582
upperback 4.93481 -1.44623 1.23747
thorax -3.86336 -1.02013 0.929873
lowerneck -7.99833 -6.6386 -3.55485
upperneck -5.9592 -7.73703 11.3058
head 0.137748 -3.47254 4.08836
rclavicle 1.56046e-014 -6.36111e-015
rhumerus 78.1528 29.5472 10.8
rradius 39.4243
rwrist -61.5629
rhand -50.5256 -6.31035
rfingers 7.12502
rthumb -23.0935 -34.9464
lclavicle 1.56046e-014 -6.36111e-015
lhumerus 75.2551 -30.2051 -19.9418
lradius 31.1365
lwrist 21.5195
lhand -46.3772 19.9418
lfingers 7.12502
lthumb -19.1084 49.0232
rfemur -12.1 1.53754 26.8853
rtibia 40.9091
rfoot -19.5746 -11.4811
rtoes 0.915906
lfemur -10.0605 -2.3956 -15.6292
ltibia 36.1216
lfoot -15.6485 -1.33867
ltoes -7.80496
140
root -1.5236 17.3969 1.90081 176.596 -3.41835 -175.078
lowerback 15.7731 -0.786476 1.23245
upperback 4.82513 -1.46388 1.25638
thorax -3.70315 -1.01437 0.913708
lowerneck -7.84039 -6.63221 -3.65013
upperneck -5.34946 -7.83177 11.2617
head 0.318198 -3.53353 4.0806
rclavicle -1.96797e-014 1.74931e-014
rhumerus 77.4882 30.2413 9.43934
rradius 39.3053
rwrist -60.1585
rhand -49.822 -6.46355
rfingers 7.12502
rthumb -22.4183 -35.1826
lclavicle -1.96797e-014 1.74931e-014
lhumerus 75.2369 -30.7539 -19.8579
lradius 31.1825
lwrist 20.6626
lhand -46.0104 19.6836
lfingers 7.12502
lthumb -18.7557 48.7994
rfemur -11.724 1.98403 27.0102
rtibia 40.4004
rfoot -19.4973 -11.8863
rtoes 0.978601
lfemur -9.67129 -2.45668 -15.5638
ltibia 35.5793
lfoot -15.6608 -1.35513
ltoes -7.71363
141
root -1.52692 17.4037 1.87778 176.621 -3.47097 -175.033
lowerback 15.2579 -0.826484 1.26647
upperback 4.73196 -1.48875 1.26471
thorax -3.52628 -1.01339 0.894525
lowerneck -7.71226 -6.62934 -3.74215
upperneck -4.69029 -7.93322 11.2177
head 0.520359 -3.59527 4.07091
rclavicle 4.1546e-014 0
rhumerus 76.7344 30.914 7.99713
rradius 39.192
rwrist -58.6338
rhand -49.1085 -6.54906
rfingers 7.12502
rthumb -21.7332 -35.349
lclavicle 4.1546e-014 0
lhumerus 75.2756 -31.2862 -19.9355
lradius 31.2691
lwrist 19.9168
lhand -45.6879 19.4911
lfingers 7.12502
lthumb -18.4455 48.6365
rfemur -11.395 2.39817 27.1162
rtibia 40.0022
rfoot -19.4844 -12.286
rtoes 0.953868
lfemur -9.34962 -2.51771 -15.5216
ltibia 35.1824
lfoot -15.7281 -1.39149
ltoes -7.40856
142
root -1.53046 17.4056 1.85478 176.622 -3.51711 -174.987
lowerback 14.7565 -0.856957 1.31636
upperback 4.67015 -1.50583 1.25194
thorax -3.32388 -1.01067 0.842589
lowerneck -7.6737 -6.63936 -3.77104
upperneck -3.98062 -8.05405 11.1544
head 0.752289 -3.66149 4.03886
rclavicle 1.80894e-014 -1.27222e-014
rhumerus 75.8706 31.556 6.46865
rradius 39.0867
rwrist -57.128
rhand -48.3992 -6.40487
rfingers 7.12502
rthumb -21.0519 -35.2822
lclavicle 1.80894e-014 -1.27222e-014
lhumerus 75.3831 -31.7693 -20.1487
lradius 31.3644
lwrist 19.1941
lhand -45.4201 19.4055
lfingers 7.12502
lthumb -18.1879 48.5752
rfemur -11.0821 2.84317 27.2239
rtibia 39.6946
rfoot -19.5439 -12.7063
rtoes 1.07421
lfemur -9.07172 -2.51513 -15.4734
ltibia 34.9156
lfoot -15.8427 -1.50025
ltoes -7.27745
143
root -1.53364 17.4034 1.83246 176.626 -3.55669 -174.921
lowerback 14.2269 -0.880774 1.35844
upperback 4.63823 -1.52084 1.27566
thorax -3.07305 -1.00918 0.831545
lowerneck -7.76558 -6.65146 -3.88415
upperneck -3.13452 -8.18133 11.1103
head 1.05836 -3.72287 4.02488
rclavicle 2.6339e-014 -1.39149e-014
rhumerus 74.9965 32.1476 4.99614
rradius 39.0109
rwrist -55.6432
rhand -47.712 -6.11071
rfingers 7.12502
rthumb -20.3917 -35.06
lclavicle 2.6339e-014 -1.39149e-014
lhumerus 75.4019 -32.2435 -20.0602
lradius 31.3446
lwrist 18.2122
lhand -45.1285 19.3139
lfingers 7.12502
lthumb -17.9073 48.5095
rfemur -10.8273 3.26766 27.3607
rtibia 39.4695
rfoot -19.6351 -13.1127
rtoes 1.11457
lfemur -8.84653 -2.49761 -15.3963
ltibia 34.7449
lfoot -16.015 -1.64556
ltoes -7.01146
144
root -1.53757 17.3975 1.81064 176.596 -3.6098 -174.874
lowerback 13.6632 -0.906554 1.37663
upperback 4.64204 -1.54826 1.28874
thorax -2.76552 -1.01537 0.823065
lowerneck -7.75812 -6.65167 -3.94414
upperneck -2.31483 -8.2919 11.0395
head 1.33384 -3.77961 3.99679
rclavicle 7.45443e-015 -4.37326e-015
rhumerus 74.0725 32.7521 3.41456
rradius 38.9319
rwrist -54.0666
rhand -47.0715 -5.83462
rfingers 7.12502
rthumb -19.776 -34.8486
lclavicle 7.45443e-015 -4.37326e-015
lhumerus 75.1164 -32.7487 -19.2702
lradius 31.2017
lwrist 16.7134
lhand -44.7859 19.1288
lfingers 7.12502
lthumb -17.5776 48.3542
rfemur -10.5648 3.64854 27.4715
rtibia 39.3046
rfoot -19.7521 -13.4881
rtoes 1.13985
lfemur -8.63118 -2.417 -15.3366
ltibia 34.6519
lfoot -16.1675 -1.84958
ltoes -6.61585
145
root -1.54081 17.3895 1.78978 176.532 -3.64807 -174.805
lowerback 13.1585 -0.933208 1.39459
upperback 4.63839 -1.57684 1.3123
thorax -2.49673 -1.02281 0.827375
lowerneck -7.76064 -6.64188 -4.04393
upperneck -1.40319 -8.39161 10.993
head 1.6457 -3.82743 3.9858
rclavicle -8.24956e-015 9.93923e-015
rhumerus 73.098 33.4182 1.7526
rradius 38.8412
rwrist -52.4174
rhand -46.4669 -5.4092
rfingers 7.12502
rthumb -19.1947 -34.482
lclavicle -8.24956e-015 9.93923e-015
lhumerus 74.3705 -33.3422 -17.5255
lradius 30.9013
lwrist 14.5055
lhand -44.3569 18.7217
lfingers 7.12502
lthumb -17.1648 47.9835
rfemur -10.3009 4.05922 27.6183
rtibia 39.1856
rfoot -19.8972 -13.8894
rtoes 1.17032
lfemur -8.41897 -2.29764 -15.2437
ltibia 34.6097
lfoot -16.3389 -2.09697
ltoes -6.42736
146
root -1.54494 17.3804 1.76858 176.477 -3.69497 -174.714
lowerback 12.7068 -0.962109 1.44081
upperback 4.62848 -1.60508 1.33662
thorax -2.26326 -1.0304 0.817872
lowerneck -7.94948 -6.64712 -4.0793
upperneck -0.344774 -8.51985 10.8961
head 2.03829 -3.87935 3.93881
rclavicle -6.21202e-015 -1.11319e-014
rhumerus 72.0005 34.1075 -0.131502
rradius 38.6969
rwrist -50.5926
rhand -45.8355 -4.97846
rfingers 7.12502
rthumb -18.5875 -34.1104
lclavicle -6.21202e-015 -1.11319e-014
lhumerus 73.2432 -33.8961 -15.0871
lradius 30.5544
lwrist 11.8869
lhand -43.888 18.1507
lfingers 7.12502
lthumb -16.7134 47.4512
rfemur -10.0635 4.43466 27.7869
rtibia 39.1044
rfoot -20.0557 -14.2674
rtoes 1.28727
lfemur -8.2402 -2.11491 -15.1198
ltibia 34.5941
lfoot -16.4851 -2.41767
ltoes -6.01914
147
root -1.5488 17.3706 1.74829 176.395 -3.73319 -174.647
lowerback 12.2891 -0.979197 1.4609
upperback 4.62844 -1.62318 1.35915
thorax -2.03704 -1.03405 0.820347
lowerneck -8.13408 -6.66006 -4.15487
upperneck 0.752148 -8.65297 10.8215
head 2.45143 -3.93046 3.90923
rclavicle -1.02374e-014 1.66979e-014
rhumerus 70.8515 34.7766 -1.95194
rradius 38.6332
rwrist -48.8505
rhand -45.215 -4.56042
rfingers 7.12502
rthumb -17.9905 -33.7484
lclavicle -1.02374e-014 1.66979e-014
lhumerus 71.904 -34.4068 -12.3538
lradius 30.2943
lwrist 9.31449
lhand -43.4713 17.4862
lfingers 7.12502
lthumb -16.3122 46.8201
rfemur -9.81507 4.82414 27.9323
rtibia 39.0444
rfoot -20.2569 -14.6471
rtoes 1.38534
lfemur -8.05572 -1.91096 -15.018
ltibia 34.5991
lfoot -16.6271 -2.72634
ltoes -5.87641
